<mxfile host="65bd71144e" modified="2020-12-04T02:50:35.656Z" agent="5.0 (Windows NT 10.0; Win64; x64) AppleWebKit/537.36 (KHTML, like Gecko) Code/1.51.1 Chrome/83.0.4103.122 Electron/9.3.3 Safari/537.36" version="13.10.0" etag="I5ba0yWQsBf_j77bUZh4" type="embed">
    <diagram id="Vug_ZMCsWOtNe_YlxKKR" name="第 1 页">
        <mxGraphModel dx="884" dy="620" grid="1" gridSize="10" guides="1" tooltips="1" connect="1" arrows="1" fold="1" page="1" pageScale="1" pageWidth="827" pageHeight="1169" background="#F1FAEE" math="0" shadow="0">
            <root>
                <mxCell id="0"/>
                <mxCell id="1" parent="0"/>
                <mxCell id="25" style="edgeStyle=orthogonalEdgeStyle;curved=0;rounded=1;sketch=0;orthogonalLoop=1;jettySize=auto;html=1;exitX=1;exitY=0.75;exitDx=0;exitDy=0;entryX=-0.018;entryY=0.167;entryDx=0;entryDy=0;entryPerimeter=0;strokeColor=#457B9D;fillColor=#A8DADC;fontSize=14;fontColor=#1D3557;" edge="1" parent="1" source="5" target="7">
                    <mxGeometry relative="1" as="geometry"/>
                </mxCell>
                <mxCell id="5" value="" style="rounded=0;whiteSpace=wrap;html=1;sketch=0;strokeColor=#457B9D;fillColor=#A8DADC;fontColor=#1D3557;" vertex="1" parent="1">
                    <mxGeometry x="130" y="210" width="170" height="300" as="geometry"/>
                </mxCell>
                <mxCell id="2" value="网址分析" style="rounded=1;whiteSpace=wrap;html=1;sketch=0;fillColor=#1ba1e2;strokeColor=#006EAF;fontColor=#ffffff;fontSize=17;" vertex="1" parent="1">
                    <mxGeometry x="155" y="240" width="120" height="60" as="geometry"/>
                </mxCell>
                <mxCell id="3" value="代码编写" style="rounded=1;whiteSpace=wrap;html=1;sketch=0;strokeColor=#006EAF;fillColor=#1ba1e2;fontColor=#ffffff;fontSize=17;" vertex="1" parent="1">
                    <mxGeometry x="155" y="320" width="120" height="60" as="geometry"/>
                </mxCell>
                <mxCell id="4" value="数据存储" style="rounded=1;whiteSpace=wrap;html=1;sketch=0;strokeColor=#006EAF;fillColor=#1ba1e2;fontColor=#ffffff;fontSize=17;" vertex="1" parent="1">
                    <mxGeometry x="150" y="410" width="120" height="60" as="geometry"/>
                </mxCell>
                <mxCell id="6" value="数据爬取" style="text;html=1;strokeColor=none;fillColor=none;align=center;verticalAlign=middle;whiteSpace=wrap;rounded=0;sketch=0;fontColor=#1D3557;fontSize=21;fontStyle=1" vertex="1" parent="1">
                    <mxGeometry x="162.5" y="180" width="105" height="20" as="geometry"/>
                </mxCell>
                <mxCell id="26" style="edgeStyle=orthogonalEdgeStyle;curved=0;rounded=1;sketch=0;orthogonalLoop=1;jettySize=auto;html=1;exitX=1;exitY=0.75;exitDx=0;exitDy=0;entryX=0.006;entryY=0.17;entryDx=0;entryDy=0;entryPerimeter=0;strokeColor=#457B9D;fillColor=#A8DADC;fontSize=14;fontColor=#1D3557;" edge="1" parent="1" source="7" target="12">
                    <mxGeometry relative="1" as="geometry"/>
                </mxCell>
                <mxCell id="7" value="" style="rounded=0;whiteSpace=wrap;html=1;sketch=0;strokeColor=#457B9D;fillColor=#A8DADC;fontColor=#1D3557;" vertex="1" parent="1">
                    <mxGeometry x="380" y="210" width="170" height="300" as="geometry"/>
                </mxCell>
                <mxCell id="8" value="定义接口数据结构" style="rounded=1;whiteSpace=wrap;html=1;sketch=0;fillColor=#1ba1e2;strokeColor=#006EAF;fontColor=#ffffff;fontSize=14;" vertex="1" parent="1">
                    <mxGeometry x="405" y="240" width="120" height="60" as="geometry"/>
                </mxCell>
                <mxCell id="9" value="编写SQL查询语句" style="rounded=1;whiteSpace=wrap;html=1;sketch=0;strokeColor=#006EAF;fillColor=#1ba1e2;fontColor=#ffffff;fontSize=14;" vertex="1" parent="1">
                    <mxGeometry x="405" y="320" width="120" height="60" as="geometry"/>
                </mxCell>
                <mxCell id="10" value="Python后端实现" style="rounded=1;whiteSpace=wrap;html=1;sketch=0;strokeColor=#006EAF;fillColor=#1ba1e2;fontColor=#ffffff;fontSize=14;" vertex="1" parent="1">
                    <mxGeometry x="405" y="410" width="120" height="60" as="geometry"/>
                </mxCell>
                <mxCell id="11" value="接口编写" style="text;html=1;strokeColor=none;fillColor=none;align=center;verticalAlign=middle;whiteSpace=wrap;rounded=0;sketch=0;fontColor=#1D3557;fontSize=21;fontStyle=1" vertex="1" parent="1">
                    <mxGeometry x="412.5" y="180" width="105" height="20" as="geometry"/>
                </mxCell>
                <mxCell id="12" value="" style="rounded=0;whiteSpace=wrap;html=1;sketch=0;strokeColor=#457B9D;fillColor=#A8DADC;fontColor=#1D3557;" vertex="1" parent="1">
                    <mxGeometry x="630" y="210" width="170" height="300" as="geometry"/>
                </mxCell>
                <mxCell id="13" value="确定页面布局" style="rounded=1;whiteSpace=wrap;html=1;sketch=0;fillColor=#1ba1e2;strokeColor=#006EAF;fontColor=#ffffff;fontSize=18;" vertex="1" parent="1">
                    <mxGeometry x="655" y="240" width="120" height="60" as="geometry"/>
                </mxCell>
                <mxCell id="14" value="发起网络请求" style="rounded=1;whiteSpace=wrap;html=1;sketch=0;strokeColor=#006EAF;fillColor=#1ba1e2;fontColor=#ffffff;fontSize=18;" vertex="1" parent="1">
                    <mxGeometry x="655" y="320" width="120" height="60" as="geometry"/>
                </mxCell>
                <mxCell id="15" value="前端图表渲染" style="rounded=1;whiteSpace=wrap;html=1;sketch=0;strokeColor=#006EAF;fillColor=#1ba1e2;fontColor=#ffffff;fontSize=18;" vertex="1" parent="1">
                    <mxGeometry x="655" y="410" width="120" height="60" as="geometry"/>
                </mxCell>
                <mxCell id="16" value="数据展示" style="text;html=1;strokeColor=none;fillColor=none;align=center;verticalAlign=middle;whiteSpace=wrap;rounded=0;sketch=0;fontColor=#1D3557;fontSize=21;fontStyle=1" vertex="1" parent="1">
                    <mxGeometry x="662.5" y="180" width="105" height="20" as="geometry"/>
                </mxCell>
            </root>
        </mxGraphModel>
    </diagram>
</mxfile>